<svg width="20" height="20" viewBox="0 0 20 20" fill="none" xmlns="http://www.w3.org/2000/svg">
<path d="M11.6667 8.54167L14.1667 6.66667V11.6667L11.6667 9.79167V11.6667H5.83333V6.66667H11.6667V8.54167ZM4.8025 14.1667H16.6667V4.16667H3.33333V15.3208L4.8025 14.1667ZM5.37916 15.8333L1.66666 18.75V3.33333C1.66666 3.11232 1.75446 2.90036 1.91074 2.74408C2.06702 2.5878 2.27898 2.5 2.5 2.5H17.5C17.721 2.5 17.933 2.5878 18.0893 2.74408C18.2455 2.90036 18.3333 3.11232 18.3333 3.33333V15C18.3333 15.221 18.2455 15.433 18.0893 15.5893C17.933 15.7455 17.721 15.8333 17.5 15.8333H5.37916Z" fill="#F1F1F1"/>
</svg>
