<svg width="135" height="40" viewBox="0 0 135 40" fill="none" xmlns="http://www.w3.org/2000/svg">
<path d="M130 40H5C2.25 40 0 37.75 0 35V5C0 2.25 2.25 0 5 0H130C132.75 0 135 2.25 135 5V35C135 37.75 132.75 40 130 40Z" fill="black"/>
<path d="M130 0.8C132.316 0.8 134.2 2.684 134.2 5V35C134.2 37.316 132.316 39.2 130 39.2H5C2.684 39.2 0.8 37.316 0.8 35V5C0.8 2.684 2.684 0.8 5 0.8H130ZM130 0H5C2.25 0 0 2.25 0 5V35C0 37.75 2.25 40 5 40H130C132.75 40 135 37.75 135 35V5C135 2.25 132.75 0 130 0Z" fill="black"/>
<path d="M47.418 10.243C47.418 11.081 47.17 11.748 46.673 12.246C46.109 12.838 45.373 13.134 44.469 13.134C43.603 13.134 42.866 12.834 42.261 12.234C41.655 11.633 41.352 10.889 41.352 10.001C41.352 9.112 41.655 8.368 42.261 7.768C42.866 7.167 43.603 6.867 44.469 6.867C44.899 6.867 45.31 6.951 45.7 7.119C46.091 7.287 46.404 7.51 46.638 7.789L46.111 8.317C45.714 7.842 45.167 7.605 44.468 7.605C43.836 7.605 43.29 7.827 42.829 8.271C42.368 8.715 42.138 9.292 42.138 10.001C42.138 10.71 42.368 11.287 42.829 11.731C43.29 12.175 43.836 12.397 44.468 12.397C45.138 12.397 45.697 12.174 46.144 11.727C46.434 11.436 46.602 11.031 46.647 10.512H44.468V9.791H47.375C47.405 9.947 47.418 10.098 47.418 10.243Z" fill="white" stroke="white" stroke-width="0.2" stroke-miterlimit="10"/>
<path d="M52.028 7.737H49.296V9.639H51.76V10.36H49.296V12.262H52.028V13H48.525V7H52.028V7.737Z" fill="white" stroke="white" stroke-width="0.2" stroke-miterlimit="10"/>
<path d="M55.279 13H54.508V7.737H52.832V7H56.955V7.737H55.279V13Z" fill="white" stroke="white" stroke-width="0.2" stroke-miterlimit="10"/>
<path d="M59.938 13V7H60.709V13H59.938Z" fill="white" stroke="white" stroke-width="0.2" stroke-miterlimit="10"/>
<path d="M64.128 13H63.357V7.737H61.681V7H65.804V7.737H64.128V13Z" fill="white" stroke="white" stroke-width="0.2" stroke-miterlimit="10"/>
<path d="M73.609 12.225C73.019 12.832 72.286 13.134 71.409 13.134C70.532 13.134 69.799 12.831 69.21 12.225C68.62 11.619 68.326 10.877 68.326 9.99999C68.326 9.12299 68.62 8.38099 69.21 7.77499C69.799 7.16799 70.532 6.86499 71.409 6.86499C72.281 6.86499 73.013 7.16999 73.605 7.77899C74.197 8.38799 74.493 9.12799 74.493 9.99999C74.493 10.877 74.198 11.619 73.609 12.225ZM69.779 11.722C70.223 12.172 70.766 12.396 71.409 12.396C72.052 12.396 72.596 12.171 73.039 11.722C73.483 11.272 73.706 10.698 73.706 9.99999C73.706 9.30199 73.483 8.72799 73.039 8.27799C72.596 7.82799 72.052 7.60399 71.409 7.60399C70.766 7.60399 70.223 7.82899 69.779 8.27799C69.336 8.72799 69.113 9.30199 69.113 9.99999C69.113 10.698 69.336 11.272 69.779 11.722Z" fill="white" stroke="white" stroke-width="0.2" stroke-miterlimit="10"/>
<path d="M75.575 13V7H76.513L79.429 11.667H79.462L79.429 10.511V7H80.2V13H79.395L76.344 8.106H76.311L76.344 9.262V13H75.575Z" fill="white" stroke="white" stroke-width="0.2" stroke-miterlimit="10"/>
<path d="M68.136 21.752C65.784 21.752 63.867 23.54 63.867 26.005C63.867 28.454 65.784 30.258 68.136 30.258C70.488 30.258 72.405 28.454 72.405 26.005C72.405 23.54 70.488 21.752 68.136 21.752ZM68.136 28.582C66.847 28.582 65.735 27.519 65.735 26.004C65.735 24.474 66.847 23.426 68.136 23.426C69.425 23.426 70.536 24.473 70.536 26.004C70.536 27.519 69.425 28.582 68.136 28.582ZM58.823 21.752C56.471 21.752 54.554 23.54 54.554 26.005C54.554 28.454 56.471 30.258 58.823 30.258C61.175 30.258 63.092 28.454 63.092 26.005C63.092 23.54 61.175 21.752 58.823 21.752ZM58.823 28.582C57.534 28.582 56.422 27.519 56.422 26.004C56.422 24.474 57.534 23.426 58.823 23.426C60.112 23.426 61.223 24.473 61.223 26.004C61.223 27.519 60.111 28.582 58.823 28.582ZM47.744 23.057V24.861H52.062C51.933 25.876 51.595 26.617 51.079 27.133C50.451 27.761 49.468 28.454 47.744 28.454C45.086 28.454 43.008 26.311 43.008 23.653C43.008 20.995 45.086 18.852 47.744 18.852C49.178 18.852 50.225 19.416 50.998 20.141L52.271 18.868C51.192 17.837 49.758 17.048 47.744 17.048C44.103 17.048 41.042 20.012 41.042 23.653C41.042 27.294 44.103 30.258 47.744 30.258C49.71 30.258 51.192 29.614 52.352 28.405C53.544 27.213 53.915 25.537 53.915 24.184C53.915 23.765 53.883 23.378 53.818 23.056H47.744V23.057ZM93.052 24.458C92.698 23.507 91.618 21.752 89.411 21.752C87.22 21.752 85.4 23.476 85.4 26.005C85.4 28.389 87.204 30.258 89.621 30.258C91.57 30.258 92.698 29.066 93.165 28.373L91.715 27.406C91.232 28.115 90.571 28.582 89.621 28.582C88.67 28.582 87.994 28.147 87.559 27.293L93.246 24.941L93.052 24.458ZM87.252 25.876C87.204 24.233 88.525 23.395 89.475 23.395C90.216 23.395 90.844 23.765 91.054 24.297L87.252 25.876ZM82.629 30H84.498V17.499H82.629V30ZM79.567 22.702H79.503C79.084 22.203 78.279 21.752 77.264 21.752C75.137 21.752 73.188 23.621 73.188 26.021C73.188 28.405 75.137 30.258 77.264 30.258C78.279 30.258 79.084 29.807 79.503 29.291H79.567V29.903C79.567 31.53 78.697 32.4 77.295 32.4C76.151 32.4 75.442 31.578 75.152 30.886L73.525 31.563C73.992 32.691 75.233 34.076 77.295 34.076C79.486 34.076 81.339 32.787 81.339 29.646V22.01H79.567V22.702V22.702ZM77.425 28.582C76.136 28.582 75.057 27.503 75.057 26.02C75.057 24.522 76.136 23.426 77.425 23.426C78.698 23.426 79.697 24.521 79.697 26.02C79.696 27.503 78.698 28.582 77.425 28.582ZM101.806 17.499H97.335V30H99.201V25.264H101.807C103.875 25.264 105.908 23.767 105.908 21.382C105.908 18.997 103.874 17.499 101.806 17.499ZM101.854 23.524H99.2V19.239H101.854C103.249 19.239 104.041 20.394 104.041 21.382C104.041 22.35 103.249 23.524 101.854 23.524ZM113.386 21.729C112.035 21.729 110.636 22.324 110.057 23.643L111.714 24.335C112.068 23.643 112.727 23.418 113.419 23.418C114.384 23.418 115.365 23.997 115.381 25.026V25.155C115.043 24.962 114.319 24.672 113.435 24.672C111.65 24.672 109.832 25.653 109.832 27.487C109.832 29.16 111.296 30.237 112.936 30.237C114.191 30.237 114.882 29.674 115.316 29.015H115.38V29.98H117.181V25.187C117.181 22.967 115.525 21.729 113.386 21.729ZM113.161 28.58C112.55 28.58 111.697 28.274 111.697 27.518C111.697 26.553 112.759 26.183 113.675 26.183C114.495 26.183 114.881 26.36 115.38 26.601C115.235 27.76 114.238 28.58 113.161 28.58ZM123.743 22.002L121.604 27.422H121.54L119.321 22.002H117.311L120.64 29.577L118.742 33.791H120.688L125.819 22.002H123.743ZM106.936 30H108.802V17.499H106.936V30Z" fill="white"/>
<path d="M10.435 7.53797C10.144 7.84597 9.972 8.32397 9.972 8.94297V31.059C9.972 31.679 10.144 32.156 10.435 32.464L10.509 32.536L22.898 20.147V20.001V19.855L10.509 7.46497L10.435 7.53797Z" fill="url(#paint0_linear)"/>
<path d="M27.028 24.278L22.899 20.147V20.001V19.855L27.029 15.725L27.122 15.778L32.015 18.558C33.413 19.352 33.413 20.651 32.015 21.446L27.122 24.226L27.028 24.278Z" fill="url(#paint1_linear)"/>
<path d="M27.122 24.225L22.899 20.001L10.435 32.464C10.896 32.952 11.656 33.012 12.513 32.525L27.122 24.225Z" fill="url(#paint2_linear)"/>
<path d="M27.122 15.777L12.514 7.47699C11.657 6.98999 10.897 7.05099 10.436 7.53799L22.899 20.001L27.122 15.777Z" fill="url(#paint3_linear)"/>
<path opacity="0.2" d="M27.029 24.132L12.514 32.379C11.702 32.84 10.976 32.81 10.51 32.39L10.436 32.465L10.51 32.537C10.976 32.957 11.702 32.988 12.514 32.526L27.122 24.226L27.029 24.132Z" fill="black"/>
<path opacity="0.12" d="M10.435 32.318C10.144 32.01 9.972 31.532 9.972 30.913V31.059C9.972 31.678 10.144 32.156 10.435 32.464L10.509 32.389L10.435 32.318Z" fill="black"/>
<path opacity="0.12" d="M32.015 21.299L27.029 24.132L27.122 24.225L32.015 21.445C32.714 21.048 33.063 20.525 33.063 20.002C33.004 20.475 32.648 20.939 32.015 21.299Z" fill="black"/>
<path opacity="0.25" d="M12.514 7.62299L32.015 18.703C32.649 19.063 33.004 19.527 33.063 20.001C33.063 19.478 32.714 18.954 32.015 18.557L12.514 7.47699C11.116 6.68299 9.973 7.34199 9.973 8.94299V9.08899C9.973 7.48899 11.116 6.82899 12.514 7.62299Z" fill="white"/>
<defs>
<linearGradient id="paint0_linear" x1="21.7997" y1="8.70967" x2="5.0173" y2="25.4921" gradientUnits="userSpaceOnUse">
<stop stop-color="#00A0FF"/>
<stop offset="0.0066" stop-color="#00A1FF"/>
<stop offset="0.2601" stop-color="#00BEFF"/>
<stop offset="0.5122" stop-color="#00D2FF"/>
<stop offset="0.7604" stop-color="#00DFFF"/>
<stop offset="1" stop-color="#00E3FF"/>
</linearGradient>
<linearGradient id="paint1_linear" x1="33.8344" y1="20.0014" x2="9.6375" y2="20.0014" gradientUnits="userSpaceOnUse">
<stop stop-color="#FFE000"/>
<stop offset="0.4087" stop-color="#FFBD00"/>
<stop offset="0.7754" stop-color="#FFA500"/>
<stop offset="1" stop-color="#FF9C00"/>
</linearGradient>
<linearGradient id="paint2_linear" x1="24.827" y1="22.2961" x2="2.0687" y2="45.0544" gradientUnits="userSpaceOnUse">
<stop stop-color="#FF3A44"/>
<stop offset="1" stop-color="#C31162"/>
</linearGradient>
<linearGradient id="paint3_linear" x1="7.2973" y1="0.176187" x2="17.4599" y2="10.3387" gradientUnits="userSpaceOnUse">
<stop stop-color="#32A071"/>
<stop offset="0.0685" stop-color="#2DA771"/>
<stop offset="0.4762" stop-color="#15CF74"/>
<stop offset="0.8009" stop-color="#06E775"/>
<stop offset="1" stop-color="#00F076"/>
</linearGradient>
</defs>
</svg>
