<svg width="198" height="79" viewBox="0 0 198 79" fill="none" xmlns="http://www.w3.org/2000/svg">
<path fill-rule="evenodd" clip-rule="evenodd" d="M0 0H198V79H0V0ZM1.71429 1.69892V77.3011H196.286V1.69892H1.71429Z" fill="#ED1D1D"/>
<path d="M36.8572 57.7634C48.6918 57.7634 58.2857 48.2555 58.2857 36.5269C58.2857 24.7982 48.6918 15.2903 36.8572 15.2903C25.0225 15.2903 15.4286 24.7982 15.4286 36.5269C15.4286 48.2555 25.0225 57.7634 36.8572 57.7634Z" fill="#ED1D1D"/>
<path d="M74.0159 51.2017L81.5432 16.1398H88.7169L85.4837 31.3166L103.519 16.1398H112.865L92.2026 33.0196L105.59 51.2017H96.4967L84.7764 34.5723L81.1896 51.2017H74.0159Z" fill="white"/>
<path d="M112.34 22.5511L113.755 16.1398H144.268L142.854 22.5511H131.234L125.071 51.2017H117.897L124.061 22.5511H112.34Z" fill="white"/>
<path d="M152.664 51.2017L145.945 16.1398H153.422L158.272 43.7385L174.842 16.1398H182.571L161 51.2017H152.664Z" fill="white"/>
<path d="M73.7144 63.6285L74.8227 58.4661H75.8789L74.9714 62.6846H77.7608L77.56 63.6285H73.7144Z" fill="white"/>
<path d="M83.8767 63.6285L84.985 58.4661H86.0412L84.9329 63.6285H83.8767Z" fill="white"/>
<path d="M93.0379 63.6285L92.0486 58.4661H93.1495L93.8636 62.5297L96.3034 58.4661H97.4414L94.2652 63.6285H93.0379Z" fill="white"/>
<path d="M102.349 63.6285L103.457 58.4661H107.377L107.177 59.3953H104.313L104.06 60.5753H105.942L105.748 61.4751H103.866L103.606 62.6993H106.5L106.299 63.6285H102.349Z" fill="white"/>
<path d="M119.576 62.655L120.283 61.9323C120.55 62.2273 120.828 62.4485 121.116 62.596C121.403 62.7386 121.711 62.8099 122.038 62.8099C122.336 62.8099 122.574 62.7485 122.752 62.6255C122.936 62.5026 123.027 62.3404 123.027 62.1388C123.027 61.9913 122.968 61.8733 122.849 61.7848C122.735 61.6914 122.544 61.6103 122.276 61.5414L121.302 61.2907C120.925 61.1923 120.637 61.0326 120.439 60.8113C120.245 60.5901 120.149 60.3172 120.149 59.9927C120.149 59.5059 120.327 59.1175 120.684 58.8274C121.046 58.5373 121.532 58.3923 122.142 58.3923C122.559 58.3923 122.963 58.471 123.355 58.6283C123.751 58.7807 124.091 58.9946 124.374 59.2699L123.704 60.0222C123.451 59.7763 123.186 59.592 122.908 59.4691C122.631 59.3461 122.343 59.2847 122.045 59.2847C121.778 59.2847 121.562 59.3388 121.398 59.4469C121.24 59.5502 121.16 59.6928 121.16 59.8747C121.16 60.0074 121.212 60.1181 121.316 60.2066C121.421 60.2901 121.589 60.3639 121.822 60.4278L122.752 60.6491C123.193 60.7572 123.523 60.9244 123.741 61.1506C123.965 61.3718 124.076 61.6496 124.076 61.9839C124.076 62.5002 123.883 62.9156 123.496 63.2303C123.109 63.545 122.593 63.7023 121.949 63.7023C121.478 63.7023 121.039 63.6138 120.632 63.4368C120.226 63.2549 119.873 62.9943 119.576 62.655Z" fill="white"/>
<path d="M129.901 63.6285L131.01 58.4661H133.33C133.806 58.4661 134.191 58.6013 134.483 58.8717C134.781 59.1421 134.93 59.4936 134.93 59.9263C134.93 60.1721 134.88 60.4032 134.781 60.6196C134.682 60.831 134.545 61.0153 134.372 61.1727C134.198 61.33 133.992 61.4554 133.754 61.5488C133.516 61.6373 133.264 61.6815 132.996 61.6815H131.374L130.958 63.6285H129.901ZM133.152 59.3879H131.865L131.568 60.7966H132.973C133.226 60.7966 133.437 60.7228 133.606 60.5753C133.774 60.4278 133.859 60.241 133.859 60.0148C133.859 59.8231 133.794 59.6706 133.665 59.5576C133.536 59.4445 133.365 59.3879 133.152 59.3879Z" fill="white"/>
<path d="M146.279 60.8261C146.279 61.2194 146.202 61.593 146.048 61.947C145.894 62.2961 145.686 62.601 145.423 62.8615C145.165 63.1221 144.858 63.3286 144.501 63.481C144.149 63.6335 143.777 63.7097 143.385 63.7097C143.028 63.7097 142.696 63.6482 142.388 63.5253C142.081 63.4024 141.816 63.2328 141.592 63.0164C141.369 62.8001 141.193 62.542 141.064 62.2421C140.935 61.9421 140.871 61.6176 140.871 61.2686C140.871 60.8752 140.948 60.504 141.102 60.1549C141.255 59.8009 141.461 59.4936 141.719 59.2331C141.982 58.9725 142.289 58.766 142.641 58.6136C142.998 58.4611 143.373 58.3849 143.764 58.3849C144.121 58.3849 144.454 58.4464 144.761 58.5693C145.069 58.6922 145.334 58.8618 145.557 59.0782C145.78 59.2945 145.956 59.5526 146.085 59.8526C146.214 60.1525 146.279 60.477 146.279 60.8261ZM145.2 60.8924C145.2 60.6761 145.163 60.4745 145.088 60.2877C145.014 60.0959 144.91 59.9337 144.776 59.8009C144.642 59.6633 144.483 59.5575 144.3 59.4838C144.117 59.4051 143.916 59.3658 143.698 59.3658C143.455 59.3658 143.226 59.415 143.013 59.5133C142.8 59.6067 142.614 59.737 142.455 59.9042C142.302 60.0713 142.178 60.268 142.083 60.4942C141.994 60.7154 141.95 60.9514 141.95 61.2022C141.95 61.4185 141.987 61.6226 142.061 61.8143C142.14 62.0011 142.245 62.1634 142.373 62.3011C142.507 62.4338 142.666 62.5395 142.85 62.6182C143.038 62.6919 143.239 62.7288 143.452 62.7288C143.695 62.7288 143.923 62.6821 144.136 62.5887C144.35 62.4903 144.533 62.3576 144.687 62.1904C144.845 62.0233 144.969 61.829 145.059 61.6078C145.153 61.3816 145.2 61.1432 145.2 60.8924Z" fill="white"/>
<path d="M152.028 63.6285L153.136 58.4661H155.457C155.933 58.4661 156.317 58.5988 156.61 58.8643C156.907 59.1298 157.056 59.4764 157.056 59.9042C157.056 60.3024 156.927 60.6515 156.669 60.9514C156.416 61.2513 156.091 61.4554 155.695 61.5635L156.476 63.6285H155.36L154.668 61.6373H153.508L153.084 63.6285H152.028ZM155.271 59.3879H153.991L153.701 60.7671H155.1C155.352 60.7671 155.561 60.6958 155.724 60.5532C155.893 60.4057 155.977 60.2213 155.977 60C155.977 59.8132 155.913 59.6657 155.784 59.5576C155.655 59.4445 155.484 59.3879 155.271 59.3879Z" fill="white"/>
<path d="M162.988 59.4101L163.196 58.4661H167.689L167.48 59.4101H165.77L164.862 63.6285H163.806L164.713 59.4101H162.988Z" fill="white"/>
<path d="M172.836 62.655L173.542 61.9323C173.81 62.2273 174.088 62.4485 174.375 62.596C174.663 62.7386 174.97 62.8099 175.298 62.8099C175.595 62.8099 175.833 62.7485 176.012 62.6255C176.195 62.5026 176.287 62.3404 176.287 62.1388C176.287 61.9913 176.227 61.8733 176.108 61.7848C175.994 61.6914 175.803 61.6103 175.536 61.5414L174.561 61.2907C174.184 61.1923 173.897 61.0326 173.698 60.8113C173.505 60.5901 173.408 60.3172 173.408 59.9927C173.408 59.5059 173.587 59.1175 173.944 58.8274C174.306 58.5373 174.792 58.3923 175.402 58.3923C175.818 58.3923 176.222 58.471 176.614 58.6283C177.011 58.7807 177.351 58.9946 177.633 59.2699L176.964 60.0222C176.711 59.7763 176.446 59.592 176.168 59.4691C175.89 59.3461 175.603 59.2847 175.305 59.2847C175.037 59.2847 174.822 59.3388 174.658 59.4469C174.499 59.5502 174.42 59.6928 174.42 59.8747C174.42 60.0074 174.472 60.1181 174.576 60.2066C174.68 60.2901 174.849 60.3639 175.082 60.4278L176.012 60.6491C176.453 60.7572 176.783 60.9244 177.001 61.1506C177.224 61.3718 177.336 61.6496 177.336 61.9839C177.336 62.5002 177.142 62.9156 176.756 63.2303C176.369 63.545 175.853 63.7023 175.208 63.7023C174.737 63.7023 174.298 63.6138 173.892 63.4368C173.485 63.2549 173.133 62.9943 172.836 62.655Z" fill="white"/>
</svg>
